# xmcd
# 
# Track frame offsets:
#     150
#     18939
#     36979
#     55399
#     69558
#     90343
#     106919
#     121737
#     136139
#     158482
#     179378
#     196103
#     211494
#     221424
#     240575
# 
# Disc length: 3358
# 
# Revision: 5
# Processed by: cddbd v1.5.2PL0 Copyright (c) Steve Scherf et al.
# Submitted via: fre:ac v1.0.17
# 
DISCID=c20d1c0f
DTITLE=YIRUMA - First Love
DYEAR=2001
DGENRE=New Age
TTITLE0=I
TTITLE1=MAY Be
TTITLE2=Love Me
TTITLE3=River Flows In You
TTITLE4=Passing By
TTITLE5=It's Your Day
TTITLE6=When The Love Falls
TTITLE7=Left My Hearts
TTITLE8=Time Forgets...
TTITLE9=On The Way
TTITLE10=Till I Find You
TTITLE11=If I Could See You Again
TTITLE12=Dream A Little Dream Of Me
TTITLE13=I...
TTITLE14=Farewell
EXTD=YEAR: 2001
EXTT0=
EXTT1=
EXTT2=
EXTT3=
EXTT4=
EXTT5=
EXTT6=
EXTT7=
EXTT8=
EXTT9=
EXTT10=
EXTT11=
EXTT12=
EXTT13=
EXTT14=
PLAYORDER=
